Coordinates
version=1
nRows=16
nColumns=40
inDegrees=yes

Units are S.I. units (second, meters, Newtons, ...)
Angles are in degrees.

endheader
time	pelvis_tilt	pelvis_list	pelvis_rotation	pelvis_tx	pelvis_ty	pelvis_tz	hip_flexion_r	hip_adduction_r	hip_rotation_r	knee_angle_r	knee_angle_r_beta	ankle_angle_r	subtalar_angle_r	mtp_angle_r	hip_flexion_l	hip_adduction_l	hip_rotation_l	knee_angle_l	knee_angle_l_beta	ankle_angle_l	subtalar_angle_l	mtp_angle_l	lumbar_extension	lumbar_bending	lumbar_rotation	arm_flex_r	arm_add_r	arm_rot_r	elbow_flex_r	pro_sup_r	wrist_flex_r	wrist_dev_r	arm_flex_l	arm_add_l	arm_rot_l	elbow_flex_l	pro_sup_l	wrist_flex_l	wrist_dev_l
     16.82250000	     -0.43743370	     -4.78272416	      5.20119826	      1.00980487	      0.93307925	      0.47807236	      5.76845039	      2.94558562	    -14.13435662	     15.37996017	     15.37996017	     11.79828626	     -2.93098644	     -5.73270536	     33.35891979	    -11.84946098	      0.01709770	     51.12126430	     51.12126430	      8.50699444	    -18.89224207	     13.61039997	    -10.06070772	      5.48099070	      3.34532899	     19.92707744	    -19.23176415	      3.07135231	     63.35725037	     44.71467281	      0.00000000	      0.00000000	     -9.01200726	     -8.13695427	     -6.62562843	     25.39374168	     45.66397185	      0.00000000	      0.00000000
     16.83585714	     -0.69021888	     -4.73448431	      5.55345448	      1.00848795	      0.93285831	      0.47814757	      5.57255240	      2.95447558	    -14.38039857	     15.05441945	     15.05441945	     11.89382045	     -2.99806833	     -5.78161857	     33.59014906	    -11.46073214	     -0.36445945	     47.46185898	     47.46185898	      8.76891665	    -18.83159671	     14.15230245	    -10.01910640	      5.43501106	      3.47611902	     21.02132300	    -19.29729725	      3.01891049	     64.35217182	     44.69341267	      0.00000000	      0.00000000	     -9.14944818	     -7.94009962	     -6.67937899	     25.27266467	     45.67793417	      0.00000000	      0.00000000
     16.84921429	     -0.95974361	     -4.72262083	      5.90497597	      1.00717123	      0.93245162	      0.47804385	      5.39335991	      2.98846157	    -14.64672859	     14.72142319	     14.72142319	     12.01727992	     -2.97316406	     -5.85149540	     33.73941807	    -10.97660569	     -0.47070232	     43.77054984	     43.77054984	      8.94381085	    -18.66517548	     14.56444344	     -9.96971349	      5.42796445	      3.52177666	     22.15027569	    -19.28932940	      2.98259280	     65.45238882	     44.66727876	      0.00000000	      0.00000000	     -9.24464685	     -7.71744977	     -6.71033552	     25.17528297	     45.68727417	      0.00000000	      0.00000000
     16.86257143	     -1.13730672	     -4.72559763	      6.24592713	      1.00591872	      0.93206442	      0.47781325	      5.13690723	      3.01942470	    -14.98539426	     14.44615922	     14.44615922	     12.16697990	     -2.82887054	     -5.98748326	     33.69132176	    -10.44169308	     -0.33624327	     40.11496562	     40.11496562	      8.97323426	    -18.34481272	     14.76782396	    -10.03710367	      5.45396134	      3.48498533	     23.16362261	    -19.17148955	      3.02912599	     66.79128808	     44.63129294	      0.00000000	      0.00000000	     -9.31379436	     -7.56246817	     -6.76874765	     25.08257579	     45.70357872	      0.00000000	      0.00000000
     16.87592857	     -1.30375147	     -4.74327075	      6.56527542	      1.00475097	      0.93156549	      0.47749517	      4.89852161	      3.04121623	    -15.39039444	     14.24283200	     14.24283200	     12.34768503	     -2.57414644	     -6.18609817	     33.56497750	     -9.90790393	     -0.02022308	     36.63110707	     36.63110707	      8.89214804	    -17.80549621	     14.58130101	    -10.11935676	      5.47879527	      3.47786275	     24.08281165	    -19.09448872	      3.12469896	     68.26258876	     44.59173993	      0.00000000	      0.00000000	     -9.27186590	     -7.41030835	     -6.85863591	     25.06525128	     45.72902938	      0.00000000	      0.00000000
     16.88928571	     -1.49439935	     -4.81739863	      6.85935572	      1.00370446	      0.93086767	      0.47703382	      4.68599083	      3.07537175	    -15.98573115	     14.05963044	     14.05963044	     12.55820836	     -1.94146940	     -6.54521377	     33.42422369	     -9.47883679	      0.36225066	     33.37152820	     33.37152820	      8.26620231	    -16.99586596	     12.75786129	    -10.16240984	      5.57707742	      3.68548549	     24.64511184	    -19.34996549	      3.33992254	     70.49378584	     44.54546262	      0.00000000	      0.00000000	     -9.07678295	     -7.21031674	     -7.18586232	     25.18979500	     45.81440674	      0.00000000	      0.00000000
     16.90264286	     -1.67701874	     -4.79665781	      7.07229044	      1.00274487	      0.93028576	      0.47664943	      4.51278564	      3.06920454	    -16.08446366	     13.97091250	     13.97091250	     12.78283615	     -2.02985564	     -6.61616286	     33.28845544	     -9.04282922	      0.71023543	     30.61949228	     30.61949228	      8.38254108	    -15.66301258	     12.72577851	    -10.15914954	      5.51373909	      3.85202026	     25.53204084	    -19.16831505	      3.29093092	     71.02607790	     44.54068304	      0.00000000	      0.00000000	     -8.84606117	     -7.13838830	     -7.20900921	     25.26282749	     45.82696950	      0.00000000	      0.00000000
     16.91600000	     -1.80968721	     -4.88906912	      7.29869613	      1.00194723	      0.92966778	      0.47619968	      4.26785625	      3.18116146	    -16.32139946	     13.84445513	     13.84445513	     13.02961259	     -1.93538650	     -6.70679119	     33.17277536	     -8.77884490	      1.09636449	     28.36059740	     28.36059740	      8.51186432	    -14.18087565	     12.45334202	    -10.18941741	      5.55013561	      3.91938758	     26.42168931	    -18.87374596	      3.28844534	     71.66661643	     44.53206549	      0.00000000	      0.00000000	     -8.57624503	     -7.10042780	     -7.24325513	     25.40590384	     45.84210246	      0.00000000	      0.00000000
     16.92935714	     -1.92732178	     -4.92834420	      7.47531958	      1.00138210	      0.92912546	      0.47568212	      3.95572567	      3.23553053	    -16.52093573	     13.67032858	     13.67032858	     13.28035591	     -1.75249746	     -6.77618921	     33.02124849	     -8.55533824	      1.29774453	     26.54937126	     26.54937126	      8.62063948	    -12.65304703	     12.08414262	    -10.20102130	      5.52182568	      3.99113641	     27.19306352	    -18.53273171	      3.33684892	     72.24139880	     44.52370348	      0.00000000	      0.00000000	     -8.29430329	     -7.09447230	     -7.28411158	     25.63563459	     45.85736557	      0.00000000	      0.00000000
     16.94271429	     -2.11733379	     -5.06880244	      7.62348236	      1.00095947	      0.92835574	      0.47513229	      3.79010840	      3.38509097	    -16.65183432	     13.60749553	     13.60749553	     13.53720954	     -1.70742346	     -6.83992136	     33.07935975	     -8.43131393	      1.59972905	     25.38686648	     25.38686648	      8.71326018	    -11.52960942	     11.90350757	    -10.07827935	      5.58892316	      4.18127900	     27.86747288	    -18.27593900	      3.37144893	     72.58703413	     44.51834900	      0.00000000	      0.00000000	     -7.89257689	     -7.10909561	     -7.28658931	     25.92643417	     45.86438386	      0.00000000	      0.00000000
     16.95607143	     -2.08213791	     -4.99819259	      7.67588385	      1.00109282	      0.92812844	      0.47453306	      3.11704056	      3.37335423	    -16.81280705	     13.17487094	     13.17487094	     13.78724903	     -1.23262111	     -6.83724194	     32.64679830	     -8.31956379	      1.24438843	     24.38861915	     24.38861915	      8.75661159	    -10.12428191	     11.22470233	    -10.19187010	      5.39551920	      4.16023260	     28.41180532	    -17.72452949	      3.52649064	     73.09952064	     44.51002392	      0.00000000	      0.00000000	     -7.68491222	     -7.19277565	     -7.36733296	     26.34709997	     45.88363716	      0.00000000	      0.00000000
     16.96942857	     -2.13594887	     -5.09606003	      7.71883289	      1.00137107	      0.92756940	      0.47384646	      2.58776397	      3.51613406	    -16.99607181	     12.81087286	     12.81087286	     14.07506452	     -0.74281001	     -6.81129492	     32.42560527	     -8.35088515	      0.96955044	     23.91962538	     23.91962538	      8.52835263	     -9.27074315	     10.09384879	    -10.15834577	      5.38979692	      4.24280225	     28.88477971	    -17.28695035	      3.72461080	     73.40099977	     44.51698662	      0.00000000	      0.00000000	     -7.51796167	     -7.27449463	     -7.52788496	     27.16026792	     45.91456674	      0.00000000	      0.00000000
     16.98278571	     -2.28361772	     -5.14010130	      7.70077888	      1.00182217	      0.92683605	      0.47309815	      2.25923319	      3.57030987	    -16.97833420	     12.66637637	     12.66637637	     14.34120378	     -0.66001571	     -6.85265585	     32.24786508	     -8.28350345	      0.79085433	     23.77868485	     23.77868485	      8.40107116	     -9.18687514	      9.96726471	     -9.96105496	      5.28951247	      4.44546344	     29.16816180	    -16.86633113	      3.87564167	     73.54351734	     44.51209900	      0.00000000	      0.00000000	     -7.02765065	     -7.39305079	     -7.55235481	     27.49014596	     45.92715176	      0.00000000	      0.00000000
     16.99614286	     -2.43253358	     -5.24904238	      7.73558779	      1.00262834	      0.92592871	      0.47211069	      1.97138173	      3.66598204	    -16.98457276	     12.64341572	     12.64341572	     14.62883499	     -0.68036575	     -6.93293701	     32.02354465	     -8.25941071	      0.64311617	     23.84155449	     23.84155449	      8.31381314	     -9.23752282	      9.98057002	     -9.63320631	      5.22254235	      4.50068625	     29.25157499	    -16.72864219	      3.92283779	     73.59757501	     44.50943705	      0.00000000	      0.00000000	     -6.83071210	     -7.43233622	     -7.55552699	     27.59225533	     45.93099083	      0.00000000	      0.00000000
     17.00950000	     -2.29331726	     -5.23426001	      7.61179624	      1.00394457	      0.92556026	      0.47123075	      0.88253135	      3.78834213	    -16.98272941	     11.74987974	     11.74987974	     14.89784093	      0.09168299	     -6.75764989	     31.29046199	     -8.28341743	      0.11913338	     23.94424205	     23.94424205	      7.88797547	     -9.43000565	      9.14693907	     -9.77042290	      5.09348760	      4.71696476	     29.38775055	    -15.96295219	      4.27345601	     73.78341910	     44.50537218	      0.00000000	      0.00000000	     -6.42046885	     -7.68812413	     -7.73240196	     28.77252916	     45.96288137	      0.00000000	      0.00000000
     17.02285714	     -2.45142193	     -5.29468709	      7.50084022	      1.00522632	      0.92446686	      0.47014079	      0.53243139	      3.82427233	    -16.85521429	     11.66027832	     11.66027832	     15.25296558	      0.21231434	     -6.81925394	     30.93997217	     -8.29264051	     -0.23096001	     24.26604491	     24.26604491	      7.62538682	     -9.78519753	      9.01748769	     -9.44632387	      4.97468344	      4.86317540	     29.27063883	    -15.47756621	      4.50078742	     73.81117761	     44.49901166	      0.00000000	      0.00000000	     -5.96512916	     -7.85436423	     -7.77559146	     29.17196506	     45.97661078	      0.00000000	      0.00000000
